# xmcd
#
# Track frame offsets:
#	150
#	22875
#	40972
#	54900
#	72217
#	90345
#	110670
#	127785
#	144930
#	164045
#
# Disc length: 2426
#
# Revision: 6
# Processed by: cddbd v1.5.1PL0 Copyright (c) Steve Scherf et al.
# Submitted via: EasyCDDAExtractor 5.0.4.1
# Normalized: r5:DSETVAR1
#
DISCID=7a09780a
DTITLE=Various Artist - Steppin' Country Volume 2
DYEAR=1996
DGENRE=Country
TTITLE0=Joe Diffie - Third Rock From The Sun [Extended Club Mix]
TTITLE1=Wade Hayes - Old Enough To Know Better [Extended Club Mix]
TTITLE2=Collin Raye - That's My Story [Extended Club Mix]
TTITLE3=Doug Stone - Born In The Dark [Extended Club Mix]
TTITLE4=Ken Mellons - Workin' For The Weekend [Extended Club Mix]
TTITLE5=Gibson/Miller Band - Mamas Don't Let Your Babies Grow Up To Be Cowboys [Extended Club Mix]
TTITLE6=Rick Trevino - Bobbie Ann Mason [Extended Club Mix]
TTITLE7=Joe Diffie - Prop Me Up Beside The Jukebox (If I Die) [Extended Club Mix]
TTITLE8=Ron Wallace - Cotton Country Queen [Extended Club Mix]
TTITLE9=Wade Hayes - Don't Stop [Extended Club Mix]
EXTD=
EXTT0=
EXTT1=
EXTT2=
EXTT3=
EXTT4=
EXTT5=
EXTT6=
EXTT7=
EXTT8=
EXTT9=
PLAYORDER=
